<?xml version="1.0" standalone="no"?>
<!DOCTYPE svg PUBLIC "-//W3C//DTD SVG 1.1//EN"
  "http://www.w3.org/Graphics/SVG/1.1/DTD/svg11.dtd">
<svg width="106.79999923706055mm" height="147.7699966430664mm" viewBox="-143 -74.7699966430664 106.79999923706055 147.7699966430664" xmlns="http://www.w3.org/2000/svg" version="1.1">
	<title>svgOutput</title>
	<desc>made with tinkercad</desc>
<path d="M -135.42799377441406 65.5780029296875 L -135.63119506835938 65.53600311279297 L -135.78599548339844 65.50399780273438 L -136.08099365234375 65.302001953125 L -136.27699279785156 65.00199890136719 L -136.3509979248047 64.63700103759766 L -136.3509979248047 63.72800064086914 L -136.3509979248047 63.487998962402344 L -136.3509979248047 61.439998626708984 L -136.3509979248047 59.345001220703125 L -136.38299560546875 59.345001220703125 L -136.38194274902344 61.439998626708984 L -136.38092041015625 63.487998962402344 L -136.3800048828125 65.322998046875 L -137.21600341796875 65.2601547241211 L -137.25799560546875 65.25700378417969 L -138.15899658203125 65.03299713134766 L -139.18899536132812 64.55699920654297 L -139.26400756835938 64.49745178222656 L -140.22300720214844 63.736000061035156 L -141.1230010986328 62.4739990234375 L -141.75999450683594 60.68000030517578 L -141.93600463867188 59.551998138427734 L -142 58.25600051879883 L -142 57.34400177001953 L -142 55.20899963378906 L -142 49.152000427246094 L -142 42.47700119018555 L -139.18899536132812 42.47700119018555 L -139.18899536132812 41.457000732421875 L -142 41.457000732421875 L -142 40.959999084472656 L -142 39.27799987792969 L -139.65199279785156 39.27799987792969 L -139.65199279785156 38.25600051879883 L -142 38.25600051879883 L -142 36.077999114990234 L -140.11500549316406 36.077999114990234 L -140.11500549316406 35.05699920654297 L -142 35.05699920654297 L -142 32.768001556396484 L -142 24.576000213623047 L -142 19.08300018310547 L -138.22500610351562 18.375999450683594 L -138.22500610351562 16.384000778198242 L -138.22500610351562 1.1102230246251565e-16 L -138.22500610351562 -32.3849983215332 L -138.22500610351562 -32.573001861572266 L -138.1139373779297 -32.768001556396484 L -136.43600463867188 -35.7140007019043 L -136.43423461914062 -32.768001556396484 L -136.4340057373047 -32.3849983215332 L -136.3509979248047 -32.3849983215332 L -136.3509979248047 -32.768001556396484 L -136.3509979248047 -34.59629821777344 L -136.3509979248047 -35.86323547363281 L -136.3509979248047 -36.09000015258789 L -135.47500610351562 -37.75600051879883 L -134.8719940185547 -39.930999755859375 L -134.67599487304688 -41.37799835205078 L -134.5989990234375 -43.07500076293945 L -134.7779998779297 -44.933998107910156 L -135.24899291992188 -46.85200119018555 L -136.05368041992188 -49.152000427246094 L -138.10699462890625 -55.020999908447266 L -138.57899475097656 -57.159000396728516 L -138.75999450683594 -59.327999114990234 L -138.4969940185547 -62.03200149536133 L -137.79800415039062 -64.64700317382812 L -137.4317626953125 -65.53600311279297 L -136.79200744628906 -67.08899688720703 L -135.61000061035156 -69.27100372314453 L -135.36842346191406 -69.63200378417969 L -135.16799926757812 -69.9314956665039 L -134.3775177001953 -71.11273193359375 L -134.37600708007812 -71.11499786376953 L -133.91653442382812 -71.68000030517578 L -133.88555908203125 -71.71807861328125 L -133.34474182128906 -72.3835678100586 L -133.2220001220703 -72.53500366210938 L -132.27699279785156 -73.447998046875 L -131.75091552734375 -73.72799682617188 L -131.6719970703125 -73.7699966430664 L -131.44200134277344 -73.7699966430664 L -131.44200134277344 -73.72799682617188 L -131.44200134277344 -72.9260025024414 L -131.07200622558594 -72.9260025024414 L -114.68800354003906 -72.9260025024414 L -106.49600219726562 -72.9260025024414 L -98.30400085449219 -72.9260025024414 L -90.11199951171875 -72.9260025024414 L -89.87200164794922 -72.9260025024414 L -81.91999816894531 -72.9260025024414 L -65.53600311279297 -72.9260025024414 L -57.34400177001953 -72.9260025024414 L -56.854000091552734 -72.9260025024414 L -56.854000091552734 -73.72799682617188 L -56.854000091552734 -73.7699966430664 L -56.60685729980469 -73.72799682617188 L -55.83599853515625 -73.59700012207031 L -55.457149505615234 -73.44450378417969 L -55.12300109863281 -73.3093032836914 L -54.82587432861328 -73.1890869140625 L -54.48899841308594 -73.052001953125 L -53.24800109863281 -72.27222442626953 L -52.95800018310547 -72.08999633789062 L -51.38600158691406 -70.66999816894531 L -50.59169387817383 -69.63200378417969 L -49.91600036621094 -68.7490005493164 L -49.262001037597656 -67.58899688720703 L -49.152000427246094 -67.33885955810547 L -48.68899917602539 -66.28600311279297 L -48.440208435058594 -65.53600311279297 L -48.20899963378906 -64.83899688720703 L -47.84600067138672 -63.237998962402344 L -47.6150016784668 -61.47999954223633 L -47.53499984741211 -59.560001373291016 L -47.63399887084961 -57.93199920654297 L -47.900001525878906 -56.12099838256836 L -49.209129333496094 -49.152000427246094 L -49.507999420166016 -47.56100082397461 L -49.77199935913086 -45.21699905395508 L -49.87200164794922 -42.8390007019043 L -49.73500061035156 -40.43899917602539 L -49.367000579833984 -38.595001220703125 L -48.84299850463867 -37.2140007019043 L -48.22736740112305 -36.209232330322266 L -48.22600173950195 -36.207000732421875 L -48.22800064086914 -35.74100112915039 L -46.33599853515625 -33.67399978637695 L -46.33599853515625 -32.768001556396484 L -46.33599853515625 1.1102230246251565e-16 L -46.33599853515625 7.400347709655762 L -46.33599853515625 9.84255313873291 L -46.33599853515625 10.781999588012695 L -44.845001220703125 10.781999588012695 L -44.222999572753906 10.845000267028809 L -43.792999267578125 11.048999786376953 L -43.540000915527344 11.411999702453613 L -43.45899963378906 11.960000038146973 L -43.45899963378906 16.384000778198242 L -43.45899963378906 25.232999801635742 L -43.45899963378906 31.370071411132812 L -43.45899963378906 32.14421844482422 L -43.45899963378906 32.40599822998047 L -42.18899917602539 32.40599822998047 L -41.83000183105469 32.47999954223633 L -41.53499984741211 32.680999755859375 L -41.47834777832031 32.768001556396484 L -41.3390007019043 32.981998443603516 L -41.26499938964844 33.3489990234375 L -41.32892990112305 39.317970275878906 L -41.32900619506836 39.32503128051758 L -41.33031463623047 39.44741439819336 L -41.33049392700195 39.464027404785156 L -41.33300018310547 39.698001861572266 L -40.37799835205078 41.02799987792969 L -40.361228942871094 41.05553436279297 L -40.251800537109375 41.237125396728516 L -40.04931640625 41.5965461730957 L -39.351436614990234 42.83924102783203 L -39.319000244140625 42.89699935913086 L -38.45600128173828 44.888999938964844 L -37.917999267578125 46.56700134277344 L -37.52556228637695 48.30450439453125 L -37.525001525878906 48.30699920654297 L -37.436187744140625 48.9627799987793 L -37.41049575805664 49.152000427246094 L -37.40192413330078 49.21514892578125 L -37.401611328125 49.217437744140625 L -37.369895935058594 49.358585357666016 L -37.36513137817383 49.37990951538086 L -37.292972564697266 50.00634765625 L -37.28464889526367 50.07889938354492 L -37.28200149536133 50.10200119018555 L -37.20000076293945 51.99700164794922 L -37.30099868774414 54.04199981689453 L -37.329742431640625 54.233001708984375 L -37.599998474121094 56.02899932861328 L -38.08300018310547 57.94499969482422 L -38.742000579833984 59.78200149536133 L -39.569000244140625 61.53200149536133 L -40.55099868774414 63.18000030517578 L -41.680999755859375 64.72100067138672 L -42.40869903564453 65.53600311279297 L -42.948001861572266 66.13999938964844 L -44.340999603271484 67.43099975585938 L -45.85100173950195 68.58300018310547 L -47.47100067138672 69.58599853515625 L -49.185001373291016 70.427001953125 L -50.98899841308594 71.0989990234375 L -52.867000579833984 71.59200286865234 L -54.816001892089844 71.8949966430664 L -56.821998596191406 72 L -58.92900085449219 71.88400268554688 L -60.970001220703125 71.5510025024414 L -62.935001373291016 71.00800323486328 L -64.81600189208984 70.26899719238281 L -65.53600311279297 69.89484405517578 L -66.59600067138672 69.34400177001953 L -68.26499938964844 68.24600219726562 L -69.81500244140625 66.98699951171875 L -71.22899627685547 65.5780029296875 L -71.54966735839844 65.5780029296875 L -72.3204574584961 65.5780029296875 L -76.13800048828125 65.5780029296875 L -76.16024780273438 65.53600311279297 L -77.39885711669922 63.19793701171875 L -77.4020004272461 63.19200134277344 L -77.67974090576172 62.509151458740234 L -77.85363006591797 62.08063888549805 L -78.11439514160156 61.439998626708984 L -78.31236267089844 60.95362854003906 L -78.31765747070312 60.94062042236328 L -77.8239974975586 60.94062042236328 L -77.80699920654297 60.94062042236328 L -77.80699920654297 59.391998291015625 L -77.80699920654297 58.57429504394531 L -77.8239974975586 58.57429504394531 L -79.00442504882812 58.57429504394531 L -79.03527069091797 58.57429504394531 L -79.03639221191406 58.57429504394531 L -79.2026138305664 58.017974853515625 L -79.32329559326172 57.614078521728516 L -79.3577880859375 57.50025177001953 L -79.40514373779297 57.34400177001953 L -79.45064544677734 57.19386672973633 L -79.6240005493164 56.630001068115234 L -79.88300323486328 56.28300094604492 L -80.48300170898438 55.87900161743164 L -80.89099884033203 55.74599838256836 L -80.74700164794922 55.73400115966797 L -81.91999816894531 55.72780990600586 L -98.30400085449219 55.641353607177734 L -114.68800354003906 55.554893493652344 L -119.21600341796875 55.53099822998047 L -119.572998046875 55.604000091552734 L -119.86699676513672 55.80699920654297 L -120.06700134277344 56.10499954223633 L -120.13899993896484 56.472999572753906 L -120.13899993896484 57.34400177001953 L -120.13899993896484 57.50025177001953 L -120.13899993896484 58.50031280517578 L -120.13899993896484 58.57429504394531 L -120.94100189208984 58.57429504394531 L -120.94100189208984 59.391998291015625 L -120.94100189208984 60.94062042236328 L -120.83200073242188 60.94062042236328 L -120.13899993896484 60.94062042236328 L -120.13899993896484 61.439998626708984 L -120.13899993896484 64.63700103759766 L -120.20999908447266 65.00199890136719 L -120.40899658203125 65.302001953125 L -120.7040023803711 65.50399780273438 L -120.85881042480469 65.53600311279297 L -121.06199645996094 65.5780029296875 L -131.07200622558594 65.5780029296875 L -135.42799377441406 65.5780029296875 M -99.80699920654297 -69.81800079345703 L -100.5351333618164 -69.63200378417969 L -100.63300323486328 -69.60700225830078 L -100.74352264404297 -69.50232696533203 L -101.02799224853516 -69.23097229003906 L -101.23999786376953 -69.02799987792969 L -101.46199798583984 -68.23400115966797 L -101.27980041503906 -67.58399963378906 L -101.23999786376953 -67.44200134277344 L -100.63300323486328 -66.86199951171875 L -99.80790710449219 -66.6510009765625 L -99.80400085449219 -66.6500015258789 L -99.80000305175781 -66.6510009765625 L -98.30400085449219 -66.6510009765625 L -90.11199951171875 -66.6510009765625 L -89.87999725341797 -66.6510009765625 L -89.8759994506836 -66.6500015258789 L -89.0459976196289 -66.86199951171875 L -88.44000244140625 -67.44200134277344 L -88.40019989013672 -67.58399963378906 L -88.21800231933594 -68.23400115966797 L -88.44000244140625 -69.02799987792969 L -88.65200805664062 -69.23097229003906 L -88.9360122680664 -69.50232696533203 L -89.0459976196289 -69.60700225830078 L -89.14386749267578 -69.63200378417969 L -89.87200164794922 -69.81800079345703 L -89.87200164794922 -69.81900024414062 L -90.11199951171875 -69.81900024414062 L -98.30400085449219 -69.81900024414062 L -99.80699920654297 -69.81900024414062 L -99.80699920654297 -69.81800079345703 M -123.5989990234375 62.00299835205078 L -122.99800109863281 62.00299835205078 L -122.99800109863281 57.34400177001953 L -122.99800109863281 56.99800109863281 L -123.5989990234375 56.99800109863281 L -123.5989990234375 55.20899963378906 L -131.07200622558594 55.20899963378906 L -135.60499572753906 55.20899963378906 L -135.60499572753906 56.99800109863281 L -136.0030059814453 56.99800109863281 L -136.0030059814453 57.34400177001953 L -136.0030059814453 61.439998626708984 L -136.0030059814453 62.00299835205078 L -135.60499572753906 62.00299835205078 L -135.60499572753906 63.487998962402344 L -135.60499572753906 63.72800064086914 L -135.16799926757812 63.72800064086914 L -131.07200622558594 63.72800064086914 L -123.5989990234375 63.72800064086914 L -123.5989990234375 62.00299835205078 M -129.03599548339844 39.30099868774414 L -129.5 39.22800064086914 L -129.96400451660156 39.30099868774414 L -130.38299560546875 39.513999938964844 L -130.71600341796875 39.84700012207031 L -130.9290008544922 40.26599884033203 L -131.0030059814453 40.72999954223633 L -130.96632385253906 40.959999084472656 L -130.9290008544922 41.194000244140625 L -130.71600341796875 41.612998962402344 L -130.38299560546875 41.94599914550781 L -129.96400451660156 42.159000396728516 L -129.5 42.233001708984375 L -129.03599548339844 42.159000396728516 L -128.61700439453125 41.94599914550781 L -128.28399658203125 41.612998962402344 L -128.0709991455078 41.194000244140625 L -128.0341796875 40.959999084472656 L -127.99800109863281 40.72999954223633 L -128.0709991455078 40.26599884033203 L -128.28399658203125 39.84700012207031 L -128.61700439453125 39.513999938964844 L -129.03599548339844 39.30099868774414 M -51.9640007019043 25.159000396728516 L -51.5 25.232999801635742 L -51.0359992980957 25.159000396728516 L -50.617000579833984 24.945999145507812 L -50.284000396728516 24.613000869750977 L -50.26519012451172 24.576000213623047 L -50.07099914550781 24.194000244140625 L -49.99800109863281 23.729999542236328 L -50.07099914550781 23.266000747680664 L -50.284000396728516 22.847000122070312 L -50.617000579833984 22.513999938964844 L -51.0359992980957 22.301000595092773 L -51.5 22.22800064086914 L -51.9640007019043 22.301000595092773 L -52.382999420166016 22.513999938964844 L -52.715999603271484 22.847000122070312 L -52.92900085449219 23.266000747680664 L -53.00299835205078 23.729999542236328 L -52.92900085449219 24.194000244140625 L -52.73480987548828 24.576000213623047 L -52.715999603271484 24.613000869750977 L -52.382999420166016 24.945999145507812 L -51.9640007019043 25.159000396728516 M -130.2729949951172 29.8799991607666 L -129.5 30.003000259399414 L -128.7270050048828 29.8799991607666 L -128.0290069580078 29.524999618530273 L -127.4749984741211 28.97100067138672 L -127.32292938232422 28.672000885009766 L -127.12000274658203 28.273000717163086 L -126.99800109863281 27.5 L -127.12000274658203 26.726999282836914 L -127.4749984741211 26.02899932861328 L -128.0290069580078 25.475000381469727 L -128.7270050048828 25.1200008392334 L -129.5 24.99799919128418 L -130.2729949951172 25.1200008392334 L -130.9709930419922 25.475000381469727 L -131.07200622558594 25.576000213623047 L -131.52499389648438 26.02899932861328 L -131.8800048828125 26.726999282836914 L -132.0030059814453 27.5 L -131.8800048828125 28.273000717163086 L -131.67706298828125 28.672000885009766 L -131.52499389648438 28.97100067138672 L -131.07200622558594 29.423999786376953 L -130.9709930419922 29.524999618530273 L -130.2729949951172 29.8799991607666 M -55.284000396728516 53.612998962402344 L -55.09844970703125 53.24800109863281 L -55.07099914550781 53.194000244140625 L -54.99800109863281 52.72999954223633 L -55.07099914550781 52.26599884033203 L -55.284000396728516 51.84700012207031 L -55.617000579833984 51.513999938964844 L -56.0359992980957 51.30099868774414 L -56.5 51.22800064086914 L -56.9640007019043 51.30099868774414 L -57.382999420166016 51.513999938964844 L -57.715999603271484 51.84700012207031 L -57.92900085449219 52.26599884033203 L -58.00299835205078 52.72999954223633 L -57.92900085449219 53.194000244140625 L -57.90155029296875 53.24800109863281 L -57.715999603271484 53.612998962402344 L -57.382999420166016 53.94599914550781 L -56.9640007019043 54.159000396728516 L -56.5 54.233001708984375 L -56.0359992980957 54.159000396728516 L -55.617000579833984 53.94599914550781 L -55.284000396728516 53.612998962402344 M -121.00299835205078 35.22800064086914 L -121.00299835205078 42.233001708984375 L -121.00299835205078 46.233001708984375 L -117.99800109863281 46.233001708984375 L -117.99800109863281 42.233001708984375 L -117.99800109863281 35.22800064086914 L -121.00299835205078 35.22800064086914 z" fill="none" stroke="rgb(255,0,0)" stroke-width="0.001mm" />
</svg>